# xmcd
#
# Track frame offsets: 
#        150
#        15451
#        33504
#        49802
#        65861
#        81381
#        98418
#        115595
#        130813
#        147896
#        161402
#        179811
#        200576
#
# Disc length: 2910 seconds
#
# Revision: 0
# Processed by: cddbd v1.5.1PL0 Copyright (c) Steve Scherf et al.
# Submitted via: ExactAudioCopy v0.95a5
#
DISCID=b30b5c0d
DTITLE=Jamie Sparks - Unforgettable
DYEAR=2000
DGENRE=R&B
TTITLE0=Unforgettable
TTITLE1=Fun Tonight
TTITLE2=Tender Love
TTITLE3=Be Right There
TTITLE4=Are We
TTITLE5=Everything To Me
TTITLE6=All That Matters
TTITLE7=You
TTITLE8=Everybody Get Up
TTITLE9=Next To Me
TTITLE10=Near My Heart
TTITLE11=What Do You Do
TTITLE12=Unforgettable Remix
EXTD=
EXTT0=
EXTT1=
EXTT2=
EXTT3=
EXTT4=
EXTT5=
EXTT6=
EXTT7=
EXTT8=
EXTT9=
EXTT10=
EXTT11=
EXTT12=
PLAYORDER=
